<svg xmlns="http://www.w3.org/2000/svg" viewBox="0 0 344 458" fill="none">
    <path d="M115 229V115H229V229H115Z" stroke="#272727"/>
    <path d="M119.75 119.751L119.75 169.626" stroke="#272727"/>
    <path d="M129.25 119.751L129.25 169.626" stroke="#272727"/>
    <path d="M138.75 119.751L138.75 169.626" stroke="#272727"/>
    <path d="M148.25 119.751L148.25 169.626" stroke="#272727"/>
    <path d="M157.75 119.751L157.75 169.626" stroke="#272727"/>
    <path d="M167.25 119.751L167.25 169.626" stroke="#272727"/>
    <path d="M176.75 119.751L176.75 169.626" stroke="#272727"/>
    <path d="M186.25 119.751L186.25 169.626" stroke="#272727"/>
    <path d="M195.75 119.751L195.75 169.626" stroke="#272727"/>
    <path d="M205.25 119.751L205.25 169.626" stroke="#272727"/>
    <path d="M214.75 119.751L214.75 169.626" stroke="#272727"/>
    <path d="M224.25 119.751L224.25 169.626" stroke="#272727"/>
    <path d="M119.75 174.374L119.75 224.249" stroke="#272727"/>
    <path d="M129.25 174.374L129.25 224.249" stroke="#272727"/>
    <path d="M138.75 174.374L138.75 224.249" stroke="#272727"/>
    <path d="M148.25 174.374L148.25 224.249" stroke="#272727"/>
    <path d="M157.75 174.374L157.75 224.249" stroke="#272727"/>
    <path d="M167.25 174.374L167.25 224.249" stroke="#272727"/>
    <path d="M176.75 174.374L176.75 224.249" stroke="#272727"/>
    <path d="M186.25 174.374L186.25 224.249" stroke="#272727"/>
    <path d="M195.75 174.374L195.75 224.249" stroke="#272727"/>
    <path d="M205.25 174.374L205.25 224.249" stroke="#272727"/>
    <path d="M214.75 174.374L214.75 224.249" stroke="#272727"/>
    <path d="M224.25 174.374L224.25 224.249" stroke="#272727"/>
    <path d="M1 229V115H115V229H1Z" stroke="#272727"/>
    <path d="M5.75 119.751L5.75 169.626" stroke="#272727"/>
    <path d="M15.25 119.751L15.25 169.626" stroke="#272727"/>
    <path d="M24.75 119.751L24.75 169.626" stroke="#272727"/>
    <path d="M34.25 119.751L34.25 169.626" stroke="#272727"/>
    <path d="M43.75 119.751L43.75 169.626" stroke="#272727"/>
    <path d="M53.25 119.751L53.25 169.626" stroke="#272727"/>
    <path d="M62.75 119.751L62.75 169.626" stroke="#272727"/>
    <path d="M72.25 119.751L72.25 169.626" stroke="#272727"/>
    <path d="M81.75 119.751L81.75 169.626" stroke="#272727"/>
    <path d="M91.25 119.751L91.25 169.626" stroke="#272727"/>
    <path d="M100.75 119.751L100.75 169.626" stroke="#272727"/>
    <path d="M110.25 119.751L110.25 169.626" stroke="#272727"/>
    <path d="M5.75 174.374L5.75 224.249" stroke="#272727"/>
    <path d="M15.25 174.374L15.25 224.249" stroke="#272727"/>
    <path d="M24.75 174.374L24.75 224.249" stroke="#272727"/>
    <path d="M34.25 174.374L34.25 224.249" stroke="#272727"/>
    <path d="M43.75 174.374L43.75 224.249" stroke="#272727"/>
    <path d="M53.25 174.374L53.25 224.249" stroke="#272727"/>
    <path d="M62.75 174.374L62.75 224.249" stroke="#272727"/>
    <path d="M72.25 174.374L72.25 224.249" stroke="#272727"/>
    <path d="M81.75 174.374L81.75 224.249" stroke="#272727"/>
    <path d="M91.25 174.374L91.25 224.249" stroke="#272727"/>
    <path d="M100.75 174.374L100.75 224.249" stroke="#272727"/>
    <path d="M110.25 174.374L110.25 224.249" stroke="#272727"/>
    <path d="M1 343V229H115V343H1Z" stroke="#272727"/>
    <path d="M5.75 233.751L5.75 283.626" stroke="#272727"/>
    <path d="M15.25 233.751L15.25 283.626" stroke="#272727"/>
    <path d="M24.75 233.751L24.75 283.626" stroke="#272727"/>
    <path d="M34.25 233.751L34.25 283.626" stroke="#272727"/>
    <path d="M43.75 233.751L43.75 283.626" stroke="#272727"/>
    <path d="M53.25 233.751L53.25 283.626" stroke="#272727"/>
    <path d="M62.75 233.751L62.75 283.626" stroke="#272727"/>
    <path d="M72.25 233.751L72.25 283.626" stroke="#272727"/>
    <path d="M81.75 233.751L81.75 283.626" stroke="#272727"/>
    <path d="M91.25 233.751L91.25 283.626" stroke="#272727"/>
    <path d="M100.75 233.751L100.75 283.626" stroke="#272727"/>
    <path d="M110.25 233.751L110.25 283.626" stroke="#272727"/>
    <path d="M5.75 288.374L5.75 338.249" stroke="#272727"/>
    <path d="M15.25 288.374L15.25 338.249" stroke="#272727"/>
    <path d="M24.75 288.374L24.75 338.249" stroke="#272727"/>
    <path d="M34.25 288.374L34.25 338.249" stroke="#272727"/>
    <path d="M43.75 288.374L43.75 338.249" stroke="#272727"/>
    <path d="M53.25 288.374L53.25 338.249" stroke="#F2F2F2" stroke-opacity="0.25"/>
    <path d="M62.75 288.374L62.75 338.249" stroke="#F2F2F2" stroke-opacity="0.25"/>
    <path d="M72.25 288.374L72.25 338.249" stroke="#F2F2F2" stroke-opacity="0.25"/>
    <path d="M81.75 288.374L81.75 338.249" stroke="#F2F2F2" stroke-opacity="0.25"/>
    <path d="M91.25 288.374L91.25 338.249" stroke="#F2F2F2" stroke-opacity="0.25"/>
    <path d="M100.75 288.374L100.75 338.249" stroke="#F2F2F2" stroke-opacity="0.3"/>
    <path d="M110.25 288.374L110.25 338.249" stroke="#F2F2F2" stroke-opacity="0.4"/>
    <path d="M115 457V343H229V457H115Z" stroke="#272727"/>
    <path d="M119.75 347.751L119.75 397.626" stroke="#272727"/>
    <path d="M129.25 347.751L129.25 397.626" stroke="#272727"/>
    <path d="M138.75 347.751L138.75 397.626" stroke="#272727"/>
    <path d="M148.25 347.751L148.25 397.626" stroke="#272727"/>
    <path d="M157.75 347.751L157.75 397.626" stroke="#272727"/>
    <path d="M167.25 347.751L167.25 397.626" stroke="#272727"/>
    <path d="M176.75 347.751L176.75 397.626" stroke="#272727"/>
    <path d="M186.25 347.751L186.25 397.626" stroke="#272727"/>
    <path d="M195.75 347.751L195.75 397.626" stroke="#272727"/>
    <path d="M205.25 347.751L205.25 397.626" stroke="#272727"/>
    <path d="M214.75 347.751L214.75 397.626" stroke="#272727"/>
    <path d="M224.25 347.751L224.25 397.626" stroke="#272727"/>
    <path d="M119.75 402.374L119.75 452.249" stroke="#272727"/>
    <path d="M129.25 402.374L129.25 452.249" stroke="#272727"/>
    <path d="M138.75 402.374L138.75 452.249" stroke="#272727"/>
    <path d="M148.25 402.374L148.25 452.249" stroke="#272727"/>
    <path d="M157.75 402.374L157.75 452.249" stroke="#272727"/>
    <path d="M167.25 402.374L167.25 452.249" stroke="#272727"/>
    <path d="M176.75 402.374L176.75 452.249" stroke="#272727"/>
    <path d="M186.25 402.374L186.25 452.249" stroke="#272727"/>
    <path d="M195.75 402.374L195.75 452.249" stroke="#272727"/>
    <path d="M205.25 402.374L205.25 452.249" stroke="#272727"/>
    <path d="M214.75 402.374L214.75 452.249" stroke="#272727"/>
    <path d="M224.25 402.374L224.25 452.249" stroke="#272727"/>
    <path d="M1 115V1H115V115H1Z" stroke="#272727"/>
    <path d="M5.75 5.75098L5.75 55.626" stroke="#272727"/>
    <path d="M15.25 5.75098L15.25 55.626" stroke="#272727"/>
    <path d="M24.75 5.75098L24.75 55.626" stroke="#272727"/>
    <path d="M34.25 5.75098L34.25 55.626" stroke="#272727"/>
    <path d="M43.75 5.75098L43.75 55.626" stroke="#272727"/>
    <path d="M53.25 5.75098L53.25 55.626" stroke="#272727"/>
    <path d="M5.75 60.374L5.75 110.249" stroke="#272727"/>
    <path d="M15.25 60.374L15.25 110.249" stroke="#272727"/>
    <path d="M24.75 60.374L24.75 110.249" stroke="#272727"/>
    <path d="M34.25 60.374L34.25 110.249" stroke="#272727"/>
    <path d="M43.75 60.374L43.75 110.249" stroke="#272727"/>
    <path d="M53.25 60.374L53.25 110.249" stroke="#272727"/>
    <path d="M115 115V1H229V115H115Z" stroke="#272727"/>
    <path d="M176.75 5.75098L176.75 55.626" stroke="#272727"/>
    <path d="M186.25 5.75098L186.25 55.626" stroke="#272727"/>
    <path d="M195.75 5.75098L195.75 55.626" stroke="#272727"/>
    <path d="M205.25 5.75098L205.25 55.626" stroke="#272727"/>
    <path d="M214.75 5.75098L214.75 55.626" stroke="#272727"/>
    <path d="M224.25 5.75098L224.25 55.626" stroke="#272727"/>
    <path d="M176.75 60.374L176.75 110.249" stroke="#272727"/>
    <path d="M186.25 60.374L186.25 110.249" stroke="#272727"/>
    <path d="M195.75 60.374L195.75 110.249" stroke="#272727"/>
    <path d="M205.25 60.374L205.25 110.249" stroke="#272727"/>
    <path d="M214.75 60.374L214.75 110.249" stroke="#272727"/>
    <path d="M224.25 60.374L224.25 110.249" stroke="#272727"/>
    <path d="M72.25 5.75098L72.25 8.10156" stroke="#272727"/>
    <path d="M81.75 5.75098L81.75 12.8486" stroke="#272727"/>
    <path d="M91.25 5.75098L91.25 17.5967" stroke="#272727"/>
    <path d="M100.75 5.75098L100.75 24.7881" stroke="#272727"/>
    <path d="M110.25 5.75098L110.25 33.0615" stroke="#272727"/>
    <path d="M119.75 5.75098L119.75 41.2891" stroke="#272727"/>
    <path d="M129.25 5.75098L129.25 48.4814" stroke="#272727"/>
    <path d="M138.75 5.75098L138.75 53.2285" stroke="#272727"/>
    <path d="M148.25 5.75098L148.25 55.626" stroke="#272727"/>
    <path d="M157.75 5.75098L157.75 55.626" stroke="#272727"/>
    <path d="M167.25 5.75098L167.25 55.626" stroke="#272727"/>
    <path d="M62.75 60.374L62.75 110.249" stroke="#272727"/>
    <path d="M72.25 60.374L72.25 110.249" stroke="#272727"/>
    <path d="M81.75 62.7705L81.75 110.249" stroke="#272727"/>
    <path d="M91.25 67.5186L91.25 110.249" stroke="#272727"/>
    <path d="M100.75 74.7109L100.75 110.249" stroke="#272727"/>
    <path d="M110.25 82.9844L110.25 110.249" stroke="#272727"/>
    <path d="M119.75 91.2109L119.75 110.249" stroke="#272727"/>
    <path d="M129.25 98.4033L129.25 110.249" stroke="#272727"/>
    <path d="M138.75 103.15L138.75 110.249" stroke="#272727"/>
    <path d="M148.25 107.898L148.25 110.249" stroke="#272727"/>
    <path d="M72.25 55.626L72.25 8.10192" stroke="#F2F2F2" stroke-opacity="0.25"/>
    <path d="M62.75 55.626L62.75 5.75098" stroke="#F2F2F2" stroke-opacity="0.25"/>
    <path d="M167.25 110.249L167.25 60.375" stroke="#F2F2F2"/>
    <path d="M157.75 60.374L157.75 110.249" stroke="#F2F2F2" stroke-opacity="0.8"/>
    <path d="M148.25 60.374L148.25 107.898" stroke="#F2F2F2" stroke-opacity="0.7"/>
    <path d="M81.75 62.7705L81.75 60.375" stroke="#F2F2F2" stroke-opacity="0.25"/>
    <path d="M81.75 55.626L81.75 12.849" stroke="#F2F2F2" stroke-opacity="0.25"/>
    <path d="M138.752 53.2285L138.752 55.626" stroke="#F2F2F2" stroke-opacity="0.6"/>
    <path d="M138.752 60.374L138.752 103.15" stroke="#F2F2F2" stroke-opacity="0.6"/>
    <path d="M91.25 67.5186L91.25 60.374" stroke="#F2F2F2" stroke-opacity="0.25"/>
    <path d="M91.25 55.626L91.25 17.597" stroke="#F2F2F2" stroke-opacity="0.25"/>
    <path d="M129.25 48.4814L129.25 55.626" stroke="#F2F2F2" stroke-opacity="0.5"/>
    <path d="M129.25 60.374L129.25 98.403" stroke="#F2F2F2" stroke-opacity="0.5"/>
    <path d="M100.75 55.626L100.75 24.7884" stroke="#F2F2F2" stroke-opacity="0.25"/>
    <path d="M100.75 74.7109L100.75 60.375" stroke="#F2F2F2" stroke-opacity="0.25"/>
    <path d="M119.75 60.374L119.75 91.2106" stroke="#F2F2F2" stroke-opacity="0.4"/>
    <path d="M119.75 41.2891L119.75 55.626" stroke="#F2F2F2" stroke-opacity="0.4"/>
    <path d="M110.25 55.626L110.25 33.0619" stroke="#F2F2F2" stroke-opacity="0.3"/>
    <path d="M110.25 82.9844L110.25 60.375" stroke="#F2F2F2" stroke-opacity="0.3"/>
    <path d="M229 343V229H343V343H229Z" stroke="#272727"/>
    <path d="M233.75 233.751L233.75 283.626" stroke="#272727"/>
    <path d="M243.25 233.751L243.25 283.626" stroke="#272727"/>
    <path d="M252.75 233.751L252.75 283.626" stroke="#272727"/>
    <path d="M262.25 233.751L262.25 283.626" stroke="#272727"/>
    <path d="M271.75 233.751L271.75 283.626" stroke="#272727"/>
    <path d="M281.25 233.751L281.25 283.626" stroke="#272727"/>
    <path d="M290.75 233.751L290.75 283.626" stroke="#272727"/>
    <path d="M300.25 233.751L300.25 283.626" stroke="#272727"/>
    <path d="M309.75 233.751L309.75 283.626" stroke="#272727"/>
    <path d="M319.25 233.751L319.25 283.626" stroke="#272727"/>
    <path d="M328.75 233.751L328.75 283.626" stroke="#272727"/>
    <path d="M338.25 233.751L338.25 283.626" stroke="#272727"/>
    <path d="M233.75 288.374L233.75 338.249" stroke="#272727"/>
    <path d="M243.25 288.374L243.25 338.249" stroke="#272727"/>
    <path d="M252.75 288.374L252.75 338.249" stroke="#272727"/>
    <path d="M262.25 288.374L262.25 338.249" stroke="#272727"/>
    <path d="M271.75 288.374L271.75 338.249" stroke="#272727"/>
    <path d="M281.25 288.374L281.25 338.249" stroke="#272727"/>
    <path d="M290.75 288.374L290.75 338.249" stroke="#272727"/>
    <path d="M300.25 288.374L300.25 338.249" stroke="#272727"/>
    <path d="M309.75 288.374L309.75 338.249" stroke="#272727"/>
    <path d="M319.25 288.374L319.25 338.249" stroke="#272727"/>
    <path d="M328.75 288.374L328.75 338.249" stroke="#272727"/>
    <path d="M338.25 288.374L338.25 338.249" stroke="#272727"/>
    <path d="M229 457V343H343V457H229Z" stroke="#272727"/>
    <path d="M233.75 347.751L233.75 397.626" stroke="#272727"/>
    <path d="M243.25 347.751L243.25 397.626" stroke="#272727"/>
    <path d="M252.75 347.751L252.75 397.626" stroke="#272727"/>
    <path d="M262.25 347.751L262.25 397.626" stroke="#272727"/>
    <path d="M271.75 347.751L271.75 397.626" stroke="#272727"/>
    <path d="M281.25 347.751L281.25 397.626" stroke="#272727"/>
    <path d="M290.75 347.751L290.75 397.626" stroke="#272727"/>
    <path d="M300.25 347.751L300.25 397.626" stroke="#272727"/>
    <path d="M309.75 347.751L309.75 397.626" stroke="#272727"/>
    <path d="M319.25 347.751L319.25 397.626" stroke="#272727"/>
    <path d="M328.75 347.751L328.75 397.626" stroke="#272727"/>
    <path d="M338.25 347.751L338.25 397.626" stroke="#272727"/>
    <path d="M233.75 402.374L233.75 452.249" stroke="#F2F2F2" stroke-opacity="0.25"/>
    <path d="M243.25 402.374L243.25 452.249" stroke="#F2F2F2" stroke-opacity="0.25"/>
    <path d="M252.75 402.374L252.75 452.249" stroke="#F2F2F2" stroke-opacity="0.25"/>
    <path d="M262.25 402.374L262.25 452.249" stroke="#F2F2F2" stroke-opacity="0.25"/>
    <path d="M271.75 402.374L271.75 452.249" stroke="#F2F2F2" stroke-opacity="0.25"/>
    <path d="M281.25 402.374L281.25 452.249" stroke="#F2F2F2" stroke-opacity="0.3"/>
    <path d="M290.75 402.374L290.75 452.249" stroke="#F2F2F2" stroke-opacity="0.4"/>
    <path d="M300.25 402.374L300.25 452.249" stroke="#F2F2F2" stroke-opacity="0.5"/>
    <path d="M309.75 402.374L309.75 452.249" stroke="#F2F2F2" stroke-opacity="0.6"/>
    <path d="M319.25 402.374L319.25 452.249" stroke="#F2F2F2" stroke-opacity="0.7"/>
    <path d="M328.75 402.374L328.75 452.249" stroke="#F2F2F2" stroke-opacity="0.8"/>
    <path d="M338.25 402.374L338.25 452.249" stroke="#F2F2F2"/>
    <path d="M115 343V229H229V343H115Z" stroke="#272727"/>
    <path d="M172 269.401L172 233.802" stroke="#272727"/>
    <path d="M172 238.887L172 233.802" stroke="#F2F2F2"/>
    <path d="M172 338.201V302.602" stroke="#F2F2F2"/>
    <path d="M180.3 271.625L197.252 242.263" stroke="#272727"/>
    <path d="M193.862 248.135L198.1 240.794" stroke="#F2F2F2"/>
    <path d="M145.9 331.207L163.699 300.377" stroke="#272727"/>
    <path d="M186.376 277.699L215.738 260.747" stroke="#272727"/>
    <path d="M203.995 267.528L217.207 259.9" stroke="#F2F2F2"/>
    <path d="M126.794 312.099L157.624 294.3" stroke="#272727"/>
    <path d="M188.601 286.001H222.505" stroke="#272727"/>
    <path d="M202.162 286.001L224.2 286.001" stroke="#F2F2F2"/>
    <path d="M119.801 286.001L155.4 286.001" stroke="#272727"/>
    <path d="M186.376 294.302L215.738 311.254" stroke="#272727"/>
    <path d="M192.249 297.693L217.207 312.102" stroke="#F2F2F2"/>
    <path d="M126.794 259.902L157.624 277.701" stroke="#272727"/>
    <path d="M180.3 300.377L197.252 329.739" stroke="#272727"/>
    <path d="M180.3 300.376L198.1 331.206" stroke="#F2F2F2"/>
    <path d="M145.9 240.793L163.699 271.623" stroke="#272727"/>
    <path d="M229 115V1H343V115H229Z" stroke="#272727"/>
    <path d="M236.87 40.2393C235.12 45.0693 234.07 50.2293 233.83 55.6093" stroke="#F2F2F2"/>
    <path d="M247.419 22.7998C243.899 26.6598 240.949 31.0298 238.699 35.8198" stroke="#272727"/>
    <path d="M283.609 5.83984C278.229 6.07984 273.069 7.12984 268.239 8.87984" stroke="#272727"/>
    <path d="M263.83 10.71C259.05 12.95 254.66 15.9 250.8 19.43" stroke="#272727"/>
    <path d="M321.19 19.43C317.33 15.9 312.95 12.96 308.17 10.71" stroke="#F2F2F2"/>
    <path d="M303.751 8.87997C298.921 7.12997 293.771 6.07997 288.391 5.83997" stroke="#F2F2F2"/>
    <path d="M338.16 55.61C337.92 50.24 336.87 45.08 335.12 40.25" stroke="#F2F2F2"/>
    <path d="M333.28 35.8299C331.04 31.0399 328.09 26.6599 324.57 22.7999" stroke="#F2F2F2"/>
    <path d="M247.419 93.1997C243.899 89.3397 240.949 84.9697 238.699 80.1797" stroke="#F2F2F2"/>
    <path d="M236.87 75.7605C235.12 70.9305 234.07 65.7705 233.83 60.3905" stroke="#F2F2F2"/>
    <path d="M283.609 110.16C278.229 109.92 273.069 108.87 268.239 107.12" stroke="#F2F2F2"/>
    <path d="M263.83 105.29C259.05 103.05 254.66 100.1 250.8 96.5703" stroke="#F2F2F2"/>
    <path d="M321.19 96.5703C317.33 100.1 312.95 103.04 308.17 105.29" stroke="#F2F2F2"/>
    <path d="M303.751 107.12C298.921 108.87 293.771 109.92 288.391 110.16" stroke="#F2F2F2"/>
    <path d="M333.28 80.1699C331.04 84.9599 328.09 89.3399 324.57 93.1999" stroke="#F2F2F2"/>
    <path d="M338.16 60.3905C337.92 65.7605 336.87 70.9205 335.12 75.7505" stroke="#F2F2F2"/>
    <path d="M277.931 57.8378L283.43 63.3898L294.703 52.0088" stroke="#0A0A0A"/>
    <path d="M229 229V115H343V229H229Z" stroke="#272727"/>
    <path d="M233.83 169.61C235.05 142.67 256.67 121.04 283.61 119.84" stroke="#272727"/>
    <path d="M283.61 224.16C256.67 222.96 235.05 201.33 233.83 174.39" stroke="#272727"/>
    <path d="M338.17 174.39C336.95 201.33 315.33 222.96 288.39 224.16" stroke="#272727"/>
    <path d="M288.39 119.84C315.33 121.04 336.95 142.67 338.17 169.61" stroke="#F2F2F2"/>
    <path d="M1 457V343H115V457H1Z" stroke="#272727"/>
    <path d="M5.83008 397.61C6.39008 384.99 11.4401 373.53 19.4201 364.8" stroke="#272727"/>
    <path d="M22.7998 361.43C31.5398 353.44 42.9898 348.4 55.6098 347.84" stroke="#272727"/>
    <path d="M60.3896 347.84C72.9996 348.4 84.4497 353.44 93.1897 361.43" stroke="#F2F2F2"/>
    <path d="M96.5703 364.8C104.54 373.53 109.6 384.99 110.16 397.61" stroke="#F2F2F2"/>
    <path d="M19.4201 435.199C11.4401 426.469 6.39008 415.009 5.83008 402.389" stroke="#272727"/>
    <path d="M55.6098 452.159C42.9898 451.599 31.5398 446.559 22.7998 438.569" stroke="#F2F2F2"/>
    <path d="M93.1897 438.569C84.4497 446.559 72.9996 451.599 60.3896 452.159" stroke="#F2F2F2"/>
    <path d="M110.16 402.389C109.6 415.009 104.54 426.469 96.5703 435.199" stroke="#F2F2F2"/>
    <path d="M49.9297 399.838L55.4287 405.39L66.7013 394.009" stroke="#0A0A0A"/>
    <rect x="343.496" y="0.503906" width="456.992" height="108.496" transform="rotate(90 343.496 0.503906)" fill="url(#paint0_linear_8433_149270)"/>
    <defs>
        <linearGradient id="paint0_linear_8433_149270" x1="343.496" y1="109" x2="343.496" y2="0.503906" gradientUnits="userSpaceOnUse">
            <stop stop-color="#0A0A0A" stop-opacity="0"/>
            <stop offset="1" stop-color="#0A0A0A"/>
        </linearGradient>
    </defs>
</svg>