<svg width="176" height="81" viewBox="0 0 176 81" fill="none" xmlns="http://www.w3.org/2000/svg">
<path d="M111.375 70.3437C110.591 70.3457 109.814 70.1919 109.09 69.8914C108.366 69.5908 107.709 69.1495 107.157 68.5929L63.625 25.0688L20.0929 68.5929C18.9614 69.6472 17.4649 70.2212 15.9186 70.1939C14.3723 70.1667 12.8969 69.5402 11.8033 68.4467C10.7097 67.3531 10.0833 65.8777 10.056 64.3314C10.0288 62.7851 10.6027 61.2886 11.6571 60.1571L59.4071 12.4071C59.9607 11.8527 60.6182 11.4128 61.3419 11.1127C62.0657 10.8127 62.8415 10.6582 63.625 10.6582C64.4085 10.6582 65.1843 10.8127 65.908 11.1127C66.6318 11.4128 67.2893 11.8527 67.8429 12.4071L111.375 55.9312L154.907 12.4071C156.039 11.3528 157.535 10.7788 159.081 10.8061C160.628 10.8333 162.103 11.4598 163.197 12.5533C164.29 13.6469 164.917 15.1223 164.944 16.6686C164.971 18.2149 164.397 19.7114 163.343 20.8429L115.593 68.5929C115.041 69.1495 114.384 69.5908 113.66 69.8914C112.935 70.1919 112.159 70.3457 111.375 70.3437Z" fill="white" fill-opacity="0.25098"/>
<path d="M159.284 32.5418C155.063 32.5524 151.01 30.8856 148.018 27.9081C145.025 24.9306 143.338 20.8863 143.328 16.665C143.317 12.4436 144.984 8.39093 147.961 5.39852C150.939 2.4061 154.983 0.71905 159.205 0.708496H159.284C163.506 0.708496 167.554 2.38543 170.539 5.37038C173.524 8.35533 175.201 12.4038 175.201 16.6252C175.201 20.8465 173.524 24.895 170.539 27.8799C167.554 30.8649 163.506 32.5418 159.284 32.5418ZM63.7842 32.5418C59.5628 32.5524 55.5101 30.8856 52.5177 27.9081C49.5253 24.9306 47.8382 20.8863 47.8277 16.665C47.8171 12.4436 49.4839 8.39093 52.4614 5.39852C55.4389 2.4061 59.4832 0.71905 63.7046 0.708496H63.7842C68.0055 0.708496 72.054 2.38543 75.0389 5.37038C78.0239 8.35533 79.7008 12.4038 79.7008 16.6252C79.7008 20.8465 78.0239 24.895 75.0389 27.8799C72.054 30.8649 68.0055 32.5418 63.7842 32.5418ZM111.534 80.2918C109.444 80.2971 107.373 79.8905 105.44 79.0955C103.507 78.3004 101.749 77.1324 100.268 75.6581C97.2753 72.6806 95.5882 68.6363 95.5777 64.415C95.5725 62.3248 95.979 60.254 96.774 58.3209C97.5691 56.3878 98.7371 54.6302 100.211 53.1485C103.189 50.1561 107.233 48.4691 111.455 48.4585H111.534C115.756 48.4585 119.804 50.1354 122.789 53.1204C125.774 56.1053 127.451 60.1538 127.451 64.3752C127.451 68.5965 125.774 72.645 122.789 75.6299C119.804 78.6149 115.756 80.2918 111.534 80.2918ZM16.0341 80.2918C13.9439 80.2971 11.8732 79.8905 9.94007 79.0955C8.00697 78.3004 6.2494 77.1324 4.76771 75.6581C1.77529 72.6806 0.0882399 68.6363 0.0776865 64.415C0.0671331 60.1936 1.73394 56.1409 4.71143 53.1485C7.68893 50.1561 11.7332 48.4691 15.9546 48.4585H16.0341C20.2555 48.4585 24.304 50.1354 27.2889 53.1204C30.2739 56.1053 31.9508 60.1538 31.9508 64.3752C31.9508 68.5965 30.2739 72.645 27.2889 75.6299C24.304 78.6149 20.2555 80.2918 16.0341 80.2918Z" fill="white"/>
</svg>
