<svg width="999" height="1056" viewBox="0 0 999 1056" fill="none" xmlns="http://www.w3.org/2000/svg">
<path d="M499.3 0C223.443 0 0 223.444 0 499.3H998.599C998.599 223.444 775.156 0 499.3 0Z" fill="white"/>
<path d="M943.428 556.31C943.428 801.822 743.892 1001.36 499.3 1001.36C254.707 1001.36 55.1712 801.822 55.1712 556.31H0C0 832.166 224.363 1055.61 499.3 1055.61C774.236 1055.61 998.599 832.166 998.599 556.31H943.428Z" fill="white"/>
<path d="M499.301 930.555C705.273 930.555 873.546 763.202 873.546 556.31H818.374C818.374 732.858 675.849 876.303 499.301 876.303C322.753 876.303 180.227 732.858 180.227 556.31H125.056C125.056 763.202 293.328 930.555 499.301 930.555Z" fill="white"/>
</svg>
